<?xml version="1.0" encoding="UTF-8"?>
<svg id="Layer_2" data-name="Layer 2" xmlns="http://www.w3.org/2000/svg" viewBox="0 0 251.32 266.09">
  <defs>
    <style>
      .cls-1 {
        fill: #fff;
      }
    </style>
  </defs>
  <g id="Layer_1-2" data-name="Layer 1">
    <g>
      <path class="cls-1" d="m23.99,128.62v-31.02c0-2.14.93-4.17,2.55-5.56L130.38,2.66c4.12-3.55,10.21-3.55,14.34-.02l104.04,89.16c1.63,1.39,2.56,3.43,2.56,5.57v134.32c0,6.08-4.93,11-11,11h-102.66v-113.02l-113.67-1.07Z"/>
      <path class="cls-1" d="m0,151.01v109.08c0,3.31,2.68,6,6,6h109.08v-115.08H0Zm54.85,102.21H13.14v-41.71h41.71v41.71Zm0-47.64H13.14v-41.71h41.71v41.71Zm47.08,47.64h-41.71v-41.71h41.71v41.71Zm0-47.64h-41.71v-41.71h41.71v41.71Z"/>
    </g>
  </g>
</svg>