<?xml version="1.0" encoding="UTF-8"?>
<svg id="Layer_2" data-name="Layer 2" xmlns="http://www.w3.org/2000/svg" viewBox="0 0 251.33 266.09">
  <defs>
    <style>
      .cls-1 {
        fill: #fff;
      }

      .cls-2 {
        fill: #0f1e3a;
      }
    </style>
  </defs>
  <g id="Layer_1-2" data-name="Layer 1">
    <g>
      <path class="cls-2" d="m23.99,128.62v-31.02c0-2.14.93-4.17,2.55-5.56L130.38,2.66c4.12-3.55,10.21-3.55,14.34-.02l104.04,89.16c1.63,1.39,2.56,3.43,2.56,5.57v134.32c0,6.08-4.93,11-11,11h-102.66v-113.02l-113.67-1.07Z"/>
      <path class="cls-2" d="m0,151.01h115.08v115.08H6c-3.31,0-6-2.69-6-6v-109.08h0Z"/>
      <rect class="cls-1" x="13.15" y="163.88" width="41.71" height="41.71"/>
      <rect class="cls-1" x="60.22" y="163.88" width="41.71" height="41.71"/>
      <rect class="cls-1" x="13.15" y="211.51" width="41.71" height="41.71"/>
      <rect class="cls-1" x="60.22" y="211.51" width="41.71" height="41.71"/>
    </g>
  </g>
</svg>